<svg width="20" height="21" viewBox="0 0 20 21" fill="none" xmlns="http://www.w3.org/2000/svg">
<path d="M13.9251 11.0543C14.4708 11.1395 15.1023 10.87 15.2876 10.3556C15.4489 9.90664 15.1969 9.479 15.0662 9.06362C14.9387 8.66261 14.8931 8.2158 14.9165 7.79829C14.9443 7.31154 15.0617 6.79976 15.267 6.35189C15.277 6.33059 14.3529 6.5452 14.2939 6.57076C13.7498 6.80668 13.2652 7.1555 13.016 7.68805C12.7328 8.29409 12.557 9.30965 12.8062 10.0712C12.9692 10.5686 13.3131 10.9579 13.9251 11.0543Z" fill="#9DA2B2"/>
<path d="M12.7211 11.7983C12.3951 11.8526 12.1169 11.9224 11.891 11.9985C11.4292 12.1551 11.1716 12.334 11.1327 12.4363C11.1577 12.489 11.2773 12.5758 11.4693 12.6706C11.6262 12.7473 11.8387 12.8266 12.1047 12.9007C12.5831 13.0333 13.2279 13.1409 14.0541 13.1409C15.9051 13.1409 16.8949 12.6083 16.9756 12.3963C16.8943 12.2249 15.9051 11.6923 14.0541 11.6923C13.5406 11.6923 13.1005 11.7349 12.7211 11.7983Z" fill="#9DA2B2"/>
<path d="M11.8699 9.75807C11.8733 9.68778 11.8916 9.62227 11.8916 9.55144C11.8916 8.08374 11.1722 6.78699 10.0695 5.92267C10.1269 6.0622 10.1625 6.21024 10.1625 6.37054C10.1625 7.72161 7.97708 8.33724 5.94581 8.33724C3.91454 8.33724 1.72916 7.72161 1.72916 6.37054C1.72916 6.21024 1.76421 6.0622 1.82208 5.92267C0.719372 6.78699 1.05215e-07 8.08374 1.05215e-07 9.55144C-0.000556254 12.1481 2.20541 14.2602 4.91766 14.2602H6.97285C6.97619 14.2602 6.97953 14.2592 6.98286 14.2592C7.53477 11.9772 9.45199 10.1969 11.8699 9.75807Z" fill="#9DA2B2"/>
<path d="M18.1779 11.9687C18.2352 12.1082 18.2709 12.2568 18.2709 12.4166C18.2709 13.7671 16.0849 14.3827 14.0542 14.3827C13.0372 14.3827 11.9807 14.2278 11.1806 13.904C10.9536 13.8124 10.755 13.7032 10.5759 13.5839C10.3834 13.4556 10.2331 13.307 10.1113 13.1472C9.94828 12.931 9.83756 12.6924 9.83756 12.4166C9.83756 12.2563 9.87261 12.1082 9.93047 11.9687C9.2417 12.5082 8.7126 13.2143 8.40883 14.0323C8.32315 14.2634 8.24582 14.4967 8.19853 14.7427C8.15791 14.9536 8.14011 15.1714 8.1301 15.3908C8.12676 15.4611 8.1084 15.5266 8.1084 15.598C8.1084 18.1942 10.3144 20.3068 13.0261 20.3068H15.0812C17.7941 20.3068 20 18.1942 20 15.598C20.0006 14.1298 19.2812 12.833 18.1779 11.9687Z" fill="#9DA2B2"/>
<path d="M4.48146 4.51621C4.61165 4.64668 4.78189 4.75852 4.9794 4.84266C5.49793 5.0642 6.18614 5.10148 6.7375 4.84266C6.91498 4.75958 7.07521 4.64189 7.21318 4.49331C7.27661 4.42461 7.33169 4.34526 7.38399 4.26165C7.48914 4.0923 7.57537 3.89952 7.62155 3.6636C7.65048 3.51555 7.66773 3.35526 7.66773 3.17845C7.66773 0.229206 4.3802 0.306958 4.3802 0.306958C4.3802 0.306958 5.40724 1.96265 4.3802 3.48893C4.3407 3.54751 4.32345 3.60342 4.29953 3.66041C4.20495 3.88301 4.20773 4.09496 4.30342 4.28082C4.34682 4.36497 4.40858 4.44325 4.48146 4.51621Z" fill="#9DA2B2"/>
<path d="M5.94525 7.09532C7.79737 7.09532 8.78602 6.56277 8.86669 6.35135C8.78546 6.17934 7.79625 5.64679 5.94525 5.64679C4.09424 5.64679 3.10448 6.17934 3.0238 6.39076C3.10448 6.56277 4.09313 7.09532 5.94525 7.09532Z" fill="#9DA2B2"/>
</svg>
