<svg width="20" height="21" viewBox="0 0 20 21" fill="none" xmlns="http://www.w3.org/2000/svg">
<path d="M16.001 18.3068H18V20.3068H10C4.477 20.3068 0 15.8298 0 10.3068C0 4.78376 4.477 0.306763 10 0.306763C15.523 0.306763 20 4.78376 20 10.3068C20.0013 11.8593 19.6405 13.3908 18.9463 14.7795C18.2521 16.1683 17.2436 17.376 16.001 18.3068ZM10 8.30676C10.5304 8.30676 11.0391 8.09605 11.4142 7.72098C11.7893 7.3459 12 6.8372 12 6.30676C12 5.77633 11.7893 5.26762 11.4142 4.89255C11.0391 4.51748 10.5304 4.30676 10 4.30676C9.46957 4.30676 8.96086 4.51748 8.58579 4.89255C8.21071 5.26762 8 5.77633 8 6.30676C8 6.8372 8.21071 7.3459 8.58579 7.72098C8.96086 8.09605 9.46957 8.30676 10 8.30676ZM6 12.3068C6.53043 12.3068 7.03914 12.096 7.41421 11.721C7.78929 11.3459 8 10.8372 8 10.3068C8 9.77633 7.78929 9.26762 7.41421 8.89255C7.03914 8.51748 6.53043 8.30676 6 8.30676C5.46957 8.30676 4.96086 8.51748 4.58579 8.89255C4.21071 9.26762 4 9.77633 4 10.3068C4 10.8372 4.21071 11.3459 4.58579 11.721C4.96086 12.096 5.46957 12.3068 6 12.3068ZM14 12.3068C14.5304 12.3068 15.0391 12.096 15.4142 11.721C15.7893 11.3459 16 10.8372 16 10.3068C16 9.77633 15.7893 9.26762 15.4142 8.89255C15.0391 8.51748 14.5304 8.30676 14 8.30676C13.4696 8.30676 12.9609 8.51748 12.5858 8.89255C12.2107 9.26762 12 9.77633 12 10.3068C12 10.8372 12.2107 11.3459 12.5858 11.721C12.9609 12.096 13.4696 12.3068 14 12.3068ZM10 16.3068C10.5304 16.3068 11.0391 16.096 11.4142 15.721C11.7893 15.3459 12 14.8372 12 14.3068C12 13.7763 11.7893 13.2676 11.4142 12.8925C11.0391 12.5175 10.5304 12.3068 10 12.3068C9.46957 12.3068 8.96086 12.5175 8.58579 12.8925C8.21071 13.2676 8 13.7763 8 14.3068C8 14.8372 8.21071 15.3459 8.58579 15.721C8.96086 16.096 9.46957 16.3068 10 16.3068Z" fill="#9DA2B2"/>
</svg>
