<svg width="24" height="24" viewBox="0 0 24 24" fill="none" xmlns="http://www.w3.org/2000/svg">
<path d="M21.6 0H2.4C1.76348 0 1.15303 0.252856 0.702944 0.702944C0.252856 1.15303 0 1.76348 0 2.4V16.8C0 17.4365 0.252856 18.047 0.702944 18.4971C1.15303 18.9471 1.76348 19.2 2.4 19.2H9.6V21.6H6V24H18V21.6H14.4V19.2H21.6C22.2365 19.2 22.847 18.9471 23.2971 18.4971C23.7471 18.047 24 17.4365 24 16.8V2.4C24 1.76348 23.7471 1.15303 23.2971 0.702944C22.847 0.252856 22.2365 0 21.6 0ZM21.6 16.8H2.4V2.4H21.6V16.8Z" fill="#9DA2B2"/>
</svg>
