<svg width="20" height="21" viewBox="0 0 20 21" fill="none" xmlns="http://www.w3.org/2000/svg">
<path d="M0 2.97343C0 2.26619 0.263392 1.58791 0.732232 1.08781C1.20107 0.587714 1.83696 0.306763 2.5 0.306763H11.25C11.913 0.306763 12.5489 0.587714 13.0178 1.08781C13.4866 1.58791 13.75 2.26619 13.75 2.97343V8.30676C13.75 9.01401 13.4866 9.69228 13.0178 10.1924C12.5489 10.6925 11.913 10.9734 11.25 10.9734H8.74999L5 14.9734V10.9734H2.5C1.83696 10.9734 1.20107 10.6925 0.732232 10.1924C0.263392 9.69228 0 9.01401 0 8.30676V2.97343Z" fill="#9DA2B2"/>
<path d="M16.25 5.64008V8.30674C16.25 9.72123 15.7232 11.0778 14.7855 12.078C13.8479 13.0782 12.5761 13.6401 11.25 13.6401H9.78501L7.57751 15.9961C7.92751 16.1947 8.32626 16.3067 8.75001 16.3067H11.25L15 20.3067V16.3067H17.5C18.163 16.3067 18.7989 16.0258 19.2678 15.5257C19.7366 15.0256 20 14.3473 20 13.6401V8.30674C20 7.5995 19.7366 6.92122 19.2678 6.42112C18.7989 5.92103 18.163 5.64008 17.5 5.64008H16.25Z" fill="#9DA2B2"/>
</svg>
