<svg width="22" height="24" viewBox="0 0 22 24" fill="none" xmlns="http://www.w3.org/2000/svg">
<path d="M20.625 21.1768H1.375C0.615608 21.1768 0 21.8088 0 22.5885C0 23.3682 0.615608 24.0003 1.375 24.0003H20.625C21.3844 24.0003 22 23.3682 22 22.5885C22 21.8088 21.3844 21.1768 20.625 21.1768Z" fill="#9DA2B2"/>
<path d="M0 19.7647L0 22.5882C0 23.3679 0.615608 24 1.375 24C2.13439 24 2.75 23.3679 2.75 22.5882L2.75 19.7647C2.75 18.985 2.13439 18.3529 1.375 18.3529C0.615608 18.3529 0 18.985 0 19.7647Z" fill="#9DA2B2"/>
<path d="M19.25 19.7647V22.5882C19.25 23.3679 19.8656 24 20.625 24C21.3844 24 22 23.3679 22 22.5882V19.7647C22 18.985 21.3844 18.3529 20.625 18.3529C19.8656 18.3529 19.25 18.985 19.25 19.7647Z" fill="#9DA2B2"/>
<path d="M11 16.9416C10.7149 16.9439 10.4362 16.8551 10.2025 16.6875L4.70249 12.7063C4.40606 12.4904 4.20494 12.1628 4.1431 11.7951C4.08126 11.4274 4.16374 11.0495 4.37249 10.744C4.4767 10.5913 4.60933 10.4613 4.76273 10.3616C4.91612 10.2618 5.08725 10.1942 5.26622 10.1627C5.4452 10.1312 5.62848 10.1364 5.80548 10.178C5.98248 10.2196 6.14971 10.2968 6.29749 10.4052L11 13.7793L15.675 10.1652C15.9667 9.94052 16.3334 9.84406 16.6944 9.89701C17.0555 9.94996 17.3812 10.148 17.6 10.4475C17.8188 10.7471 17.9127 11.1236 17.8612 11.4942C17.8096 11.8649 17.6167 12.1993 17.325 12.424L11.825 16.6593C11.587 16.8426 11.2975 16.9416 11 16.9416Z" fill="#9DA2B2"/>
<path d="M11 14.1176C10.6353 14.1176 10.2856 13.9689 10.0277 13.7042C9.76987 13.4394 9.625 13.0803 9.625 12.7059V1.41176C9.625 1.03734 9.76987 0.678253 10.0277 0.413496C10.2856 0.148739 10.6353 0 11 0C11.3647 0 11.7144 0.148739 11.9723 0.413496C12.2301 0.678253 12.375 1.03734 12.375 1.41176V12.7059C12.375 13.0803 12.2301 13.4394 11.9723 13.7042C11.7144 13.9689 11.3647 14.1176 11 14.1176Z" fill="#9DA2B2"/>
</svg>
