<svg width="20" height="21" viewBox="0 0 20 21" fill="none" xmlns="http://www.w3.org/2000/svg">
<path d="M0.999738 12.301H2.99974V19.306C2.99974 19.5714 3.1051 19.826 3.29263 20.0137C3.48017 20.2013 3.73452 20.3068 3.99974 20.3068H15.9997C16.265 20.3068 16.5193 20.2013 16.7068 20.0137C16.8944 19.826 16.9997 19.5714 16.9997 19.306V12.301H18.9997C19.193 12.3011 19.3821 12.2451 19.5442 12.1398C19.7063 12.0345 19.8343 11.8843 19.9127 11.7075C19.9917 11.5309 20.0177 11.335 19.9875 11.1439C19.9573 10.9527 19.8723 10.7744 19.7427 10.6307L10.7427 0.623492C10.3637 0.201186 9.63574 0.201186 9.25674 0.623492L0.256738 10.6307C0.127429 10.7745 0.042526 10.9527 0.0123019 11.1438C-0.0179222 11.3348 0.00782824 11.5305 0.0864374 11.7072C0.165047 11.8839 0.293145 12.0341 0.455233 12.1394C0.617321 12.2448 0.806451 12.3009 0.999738 12.301ZM6.94874 11.9847C6.97974 12.0798 7.76174 14.3024 9.99974 14.3024C12.2687 14.3024 13.0417 12.0138 13.0497 11.9897L14.9497 12.6112C14.9007 12.7623 13.7027 16.3039 9.99974 16.3039C6.29674 16.3039 5.09874 12.7623 5.04974 12.6122L6.94874 11.9847Z" fill="#9DA2B2"/>
</svg>
