<svg width="25" height="21" viewBox="0 0 25 21" fill="none" xmlns="http://www.w3.org/2000/svg">
<path d="M22.5 0.306763H2.5C1.83696 0.306763 1.20107 0.570155 0.732233 1.039C0.263392 1.50784 0 2.14372 0 2.80676V17.8068C0 18.4698 0.263392 19.1057 0.732233 19.5745C1.20107 20.0434 1.83696 20.3068 2.5 20.3068H22.5C23.163 20.3068 23.7989 20.0434 24.2678 19.5745C24.7366 19.1057 25 18.4698 25 17.8068V2.80676C25 2.14372 24.7366 1.50784 24.2678 1.039C23.7989 0.570155 23.163 0.306763 22.5 0.306763ZM22.5 5.60176L12.5 11.7043L2.5 5.60176V2.80676H22.5V5.60176Z" fill="#9DA2B2"/>
</svg>
