<svg width="9" height="12" viewBox="0 0 9 12" fill="none" xmlns="http://www.w3.org/2000/svg">
<path d="M8.25 5.25H7.5V3C7.5 1.35 6.15 0 4.5 0C2.85 0 1.5 1.35 1.5 3V5.25H0.75C0.375 5.25 0 5.625 0 6V11.25C0 11.625 0.375 12 0.75 12H8.25C8.625 12 9 11.625 9 11.25V6C9 5.625 8.625 5.25 8.25 5.25ZM5.25 10.5H3.75L4.05 8.85C3.675 8.7 3.375 8.25 3.375 7.875C3.375 7.275 3.9 6.75 4.5 6.75C5.1 6.75 5.625 7.275 5.625 7.875C5.625 8.325 5.4 8.7 4.95 8.85L5.25 10.5ZM6 5.25H3V3C3 2.175 3.675 1.5 4.5 1.5C5.325 1.5 6 2.175 6 3V5.25Z" fill="#9DA2B2"/>
</svg>
