<svg width="11" height="12" viewBox="0 0 11 12" fill="none" xmlns="http://www.w3.org/2000/svg">
<path fill-rule="evenodd" clip-rule="evenodd" d="M0.3 8.84434H4.02957L7.18922 11.912C7.37945 12.0967 7.6982 11.9619 7.6982 11.6968L7.6982 0.300599C7.6982 0.0354579 7.37945 -0.0993365 7.18922 0.0853581L4.02964 3.15299H0.3C0.134315 3.15299 0 3.28731 0 3.45299V8.54434C0 8.71003 0.134315 8.84434 0.3 8.84434ZM10.356 3.98652C9.94342 3.45286 9.38388 3.15305 8.80044 3.15305V5.99872L8.80044 8.84439C9.38388 8.84439 9.94342 8.54458 10.356 8.01091C10.7685 7.47725 11.0003 6.75344 11.0003 5.99872C11.0003 5.244 10.7685 4.52019 10.356 3.98652Z" fill="#9DA2B2"/>
</svg>
