<svg width="20" height="21" viewBox="0 0 20 21" fill="none" xmlns="http://www.w3.org/2000/svg">
<path d="M19.7526 8.78682L17.5171 8.12016C17.3626 7.58104 17.15 7.06023 16.8832 6.56683L17.9776 4.52018C18.0186 4.44292 18.0337 4.3545 18.0204 4.26803C18.0072 4.18156 17.9664 4.10166 17.9042 4.04018L16.3093 2.44019C16.2477 2.37797 16.1677 2.33723 16.0812 2.32402C15.9946 2.31081 15.9061 2.32583 15.8288 2.36685L13.7935 3.45352C13.2947 3.17396 12.7666 2.95038 12.2186 2.78685L11.5513 0.580197C11.5231 0.498875 11.4697 0.428597 11.399 0.379479C11.3282 0.330361 11.2437 0.304937 11.1576 0.306865H8.90203C8.81538 0.307268 8.73111 0.335288 8.6615 0.386847C8.59188 0.438405 8.54056 0.510812 8.51499 0.59353L7.84767 2.79352C7.29514 2.95617 6.76245 3.17977 6.25945 3.46018L4.25749 2.38019C4.18016 2.33916 4.09165 2.32414 4.0051 2.33735C3.91855 2.35056 3.83857 2.3913 3.77702 2.45352L2.15544 4.03351C2.09316 4.09499 2.05238 4.1749 2.03916 4.26137C2.02593 4.34783 2.04097 4.43626 2.08203 4.51351L3.16309 6.5135C2.88285 7.01389 2.65905 7.5438 2.49577 8.09349L0.286947 8.76016C0.204148 8.7857 0.13167 8.83698 0.0800604 8.90652C0.0284508 8.97607 0.000403443 9.06025 0 9.14682V11.4001C0.000403443 11.4867 0.0284508 11.5709 0.0800604 11.6404C0.13167 11.71 0.204148 11.7613 0.286947 11.7868L2.50912 12.4535C2.67418 12.994 2.89795 13.5149 3.17644 14.0068L2.08203 16.1001C2.04097 16.1774 2.02593 16.2658 2.03916 16.3523C2.05238 16.4387 2.09316 16.5186 2.15544 16.5801L3.75033 18.1734C3.81187 18.2357 3.89186 18.2764 3.97841 18.2896C4.06496 18.3028 4.15347 18.2878 4.2308 18.2468L6.29282 17.1468C6.7806 17.4097 7.29514 17.6198 7.82765 17.7734L8.49497 20.0201C8.52054 20.1028 8.57186 20.1752 8.64148 20.2268C8.71109 20.2783 8.79536 20.3064 8.88201 20.3068H11.1376C11.2242 20.3064 11.3085 20.2783 11.3781 20.2268C11.4477 20.1752 11.499 20.1028 11.5246 20.0201L12.1919 17.7668C12.7199 17.6124 13.2299 17.4023 13.7134 17.1401L15.7888 18.2468C15.8661 18.2878 15.9546 18.3028 16.0412 18.2896C16.1277 18.2764 16.2077 18.2357 16.2692 18.1734L17.8641 16.5801C17.9264 16.5186 17.9672 16.4387 17.9804 16.3523C17.9936 16.2658 17.9786 16.1774 17.9375 16.1001L16.8298 14.0335C17.0949 13.5486 17.3075 13.0368 17.4637 12.5068L19.7126 11.8401C19.7954 11.8146 19.8679 11.7633 19.9195 11.6938C19.9711 11.6242 19.9991 11.54 19.9995 11.4535V9.18015C20.0035 9.09725 19.9819 9.01514 19.9378 8.94483C19.8937 8.87452 19.829 8.81938 19.7526 8.78682ZM10.0298 13.9735C9.30389 13.9735 8.59429 13.7584 7.99072 13.3555C7.38715 12.9526 6.91672 12.38 6.63893 11.71C6.36114 11.04 6.28845 10.3027 6.43007 9.59149C6.57169 8.88023 6.92125 8.22689 7.43454 7.7141C7.94783 7.20131 8.60181 6.8521 9.31377 6.71062C10.0257 6.56914 10.7637 6.64175 11.4343 6.91927C12.105 7.19679 12.6782 7.66676 13.0815 8.26973C13.4848 8.87271 13.7001 9.58162 13.7001 10.3068C13.7001 11.2793 13.3134 12.2119 12.6251 12.8995C11.9368 13.5872 11.0032 13.9735 10.0298 13.9735Z" fill="#9DA2B2"/>
</svg>
