<svg width="14" height="14" viewBox="0 0 14 14" fill="none" xmlns="http://www.w3.org/2000/svg">
<path d="M1 4V2.5C1 2.10218 1.15804 1.72064 1.43934 1.43934C1.72064 1.15804 2.10218 1 2.5 1H4" stroke="#9DA2B2" stroke-width="2" stroke-linecap="round" stroke-linejoin="round"/>
<path d="M1 10V11.5C1 11.8978 1.15804 12.2794 1.43934 12.5607C1.72064 12.842 2.10218 13 2.5 13H4" stroke="#9DA2B2" stroke-width="2" stroke-linecap="round" stroke-linejoin="round"/>
<path d="M10 1H11.5C11.8978 1 12.2794 1.15804 12.5607 1.43934C12.842 1.72064 13 2.10218 13 2.5V4" stroke="#9DA2B2" stroke-width="2" stroke-linecap="round" stroke-linejoin="round"/>
<path d="M10 13H11.5C11.8978 13 12.2794 12.842 12.5607 12.5607C12.842 12.2794 13 11.8978 13 11.5V10" stroke="#9DA2B2" stroke-width="2" stroke-linecap="round" stroke-linejoin="round"/>
<path d="M4.75 5.5H4.7575" stroke="#9DA2B2" stroke-width="2" stroke-linecap="round" stroke-linejoin="round"/>
<path d="M9.25 5.5H9.2575" stroke="#9DA2B2" stroke-width="2" stroke-linecap="round" stroke-linejoin="round"/>
<path d="M5.125 9.25C5.36941 9.49945 5.66114 9.69762 5.9831 9.83291C6.30505 9.9682 6.65077 10.0379 7 10.0379C7.34923 10.0379 7.69495 9.9682 8.0169 9.83291C8.33886 9.69762 8.63059 9.49945 8.875 9.25" stroke="#9DA2B2" stroke-width="2" stroke-linecap="round" stroke-linejoin="round"/>
</svg>
